<svg width="1181" height="434" viewBox="0 0 1181 434" fill="none" xmlns="http://www.w3.org/2000/svg">
<path d="M314.441 346.535L330.955 309.628H399.253V346.535H314.441ZM366.653 207.707L455.697 388.791H405.617L331.987 230.991C331.987 230.991 330.741 227.532 327.059 227.579C323.399 227.626 322.267 230.991 322.267 230.991L251.231 388.791H201.152L290.195 207.707C290.195 207.707 300.948 188.326 328.424 188.211C355.9 188.097 366.653 207.707 366.653 207.707Z" fill="#313181"/>
<path d="M752.839 389.242C771.1 398.414 792.313 403 816.476 403C840.64 403 861.759 398.414 879.835 389.242C898.096 380.071 912.299 367.342 922.444 351.058C927.716 342.498 931.618 333.204 934.15 323.178C934.909 320.173 935.545 317.103 936.057 313.967H887.441C886.551 317.169 885.435 320.239 884.094 323.178C883.154 325.236 882.103 327.229 880.942 329.158C875.039 339.266 866.554 347.033 855.487 352.461C844.604 357.89 831.601 360.604 816.476 360.604C801.535 360.604 788.531 357.89 777.464 352.461C766.397 347.033 757.82 339.266 751.733 329.158C750.607 327.229 749.588 325.236 748.676 323.178C747.379 320.248 746.3 317.188 745.438 313.997H696.898C697.41 317.122 698.045 320.183 698.801 323.178C701.333 333.204 705.236 342.498 710.508 351.058C720.652 367.342 734.764 380.071 752.839 389.242Z" fill="#313181"/>
<path d="M752.839 197.758C734.764 206.93 720.652 219.751 710.508 236.223C705.428 244.378 701.62 253.236 699.083 262.799C698.201 266.125 697.473 269.536 696.898 273.033H745.43C746.394 269.457 747.631 266.046 749.141 262.799C749.93 261.102 750.794 259.45 751.733 257.842C757.82 247.735 766.397 239.967 777.464 234.538C788.531 229.11 801.535 226.396 816.476 226.396C831.601 226.396 844.604 229.11 855.487 234.538C866.554 239.967 875.039 247.735 880.942 257.842C881.91 259.45 882.801 261.102 883.615 262.799C885.172 266.046 886.447 269.457 887.441 273.033H936.053C935.478 269.536 934.75 266.125 933.868 262.799C931.332 253.236 927.524 244.378 922.444 236.223C912.299 219.751 898.096 206.93 879.835 197.758C861.759 188.586 840.64 184 816.476 184C792.313 184 771.1 188.586 752.839 197.758Z" fill="#313181"/>
<path d="M1025.79 270.986H1072.54V398.671H1025.79V270.986ZM943.062 188.094H1155V230.209H943.062V188.094Z" fill="white"/>
<path d="M181.77 196.798C169.78 190.995 155.577 188.094 139.161 188.094H26V227.401H73.0354H136.671C147.554 227.401 156.038 230.116 162.126 235.544C168.397 240.785 171.533 248.178 171.533 257.725C171.533 267.083 168.397 274.477 162.126 279.905C156.038 285.334 147.554 288.047 136.671 288.047H73.0354H49.204C49.204 288.047 39.8423 287.822 33.0422 294.524C26.2421 301.225 26 311.409 26 311.409V398.907H73.0354V327.355H139.161C155.577 327.355 169.78 324.454 181.77 318.651C193.759 312.661 202.889 304.519 209.162 294.224C215.617 283.742 218.845 271.576 218.845 257.725C218.845 243.873 215.617 231.707 209.162 221.224C202.889 210.742 193.759 202.6 181.77 196.798Z" fill="white"/>
<path d="M546.59 300.121H600.265L678.565 398.671H623.506L546.59 300.121Z" fill="white"/>
<path d="M636.066 196.798C623.897 190.995 609.483 188.094 592.822 188.094H477.973V227.401H525.71H590.295C601.34 227.401 609.951 230.116 616.129 235.544C622.494 240.785 625.676 248.178 625.676 257.725C625.676 267.083 622.494 274.477 616.129 279.905C609.951 285.334 601.34 288.047 590.295 288.047H525.71H501.523C501.523 288.047 492.021 287.822 485.12 294.524C478.218 301.225 477.973 311.409 477.973 311.409V398.907H525.71V327.355H592.822C609.483 327.355 623.897 324.454 636.066 318.651C648.234 312.661 657.5 304.519 663.866 294.224C670.418 283.742 673.694 271.576 673.694 257.725C673.694 243.873 670.418 231.707 663.866 221.224C657.5 210.742 648.234 202.6 636.066 196.798Z" fill="white"/>
<path d="M100.063 55H90.375C89.8021 52.2135 88.7995 49.7656 87.3672 47.6562C85.9609 45.5469 84.2422 43.776 82.2109 42.3438C80.2057 40.8854 77.9792 39.7917 75.5313 39.0625C73.0833 38.3333 70.5313 37.9687 67.875 37.9687C63.0313 37.9687 58.6432 39.1927 54.7109 41.6406C50.8047 44.0885 47.6927 47.6953 45.375 52.4609C43.0833 57.2266 41.9375 63.0729 41.9375 70C41.9375 76.9271 43.0833 82.7734 45.375 87.5391C47.6927 92.3047 50.8047 95.9115 54.7109 98.3594C58.6432 100.807 63.0313 102.031 67.875 102.031C70.5313 102.031 73.0833 101.667 75.5313 100.937C77.9792 100.208 80.2057 99.1276 82.2109 97.6953C84.2422 96.237 85.9609 94.4531 87.3672 92.3437C88.7995 90.2083 89.8021 87.7604 90.375 85H100.063C99.3333 89.0885 98.0052 92.7474 96.0781 95.9766C94.151 99.2057 91.7552 101.953 88.8906 104.219C86.026 106.458 82.8099 108.164 79.2422 109.336C75.7005 110.508 71.9115 111.094 67.875 111.094C61.0521 111.094 54.9844 109.427 49.6719 106.094C44.3594 102.76 40.1797 98.0208 37.1328 91.875C34.0859 85.7292 32.5625 78.4375 32.5625 70C32.5625 61.5625 34.0859 54.2708 37.1328 48.125C40.1797 41.9792 44.3594 37.2396 49.6719 33.9062C54.9844 30.5729 61.0521 28.9062 67.875 28.9062C71.9115 28.9062 75.7005 29.4922 79.2422 30.6641C82.8099 31.8359 86.026 33.5547 88.8906 35.8203C91.7552 38.0599 94.151 40.7943 96.0781 44.0234C98.0052 47.2266 99.3333 50.8854 100.063 55ZM128.917 110V30H177.198V38.5937H138.604V65.625H174.698V74.2187H138.604V101.406H177.823V110H128.917ZM271.296 30V110H261.921L218.328 47.1875H217.546V110H207.859V30H217.234L260.984 92.9687H261.765V30H271.296ZM299.506 38.5937V30H359.506V38.5937H334.35V110H324.663V38.5937H299.506ZM387.657 110V30H414.689C420.939 30 426.069 31.0677 430.079 33.2031C434.09 35.3125 437.058 38.2161 438.986 41.9141C440.913 45.612 441.876 49.8177 441.876 54.5312C441.876 59.2448 440.913 63.4245 438.986 67.0703C437.058 70.7161 434.103 73.5807 430.118 75.6641C426.134 77.7214 421.043 78.75 414.845 78.75H392.97V70H414.532C418.803 70 422.241 69.375 424.845 68.125C427.475 66.875 429.376 65.1042 430.548 62.8125C431.746 60.4948 432.345 57.7344 432.345 54.5312C432.345 51.3281 431.746 48.5286 430.548 46.1328C429.35 43.737 427.436 41.888 424.806 40.5859C422.176 39.2578 418.699 38.5937 414.376 38.5937H397.345V110H387.657ZM425.314 74.0625L445.001 110H433.751L414.376 74.0625H425.314ZM471.219 110V30H519.5V38.5937H480.906V65.625H517V74.2187H480.906V101.406H520.125V110H471.219ZM594.298 30H605.861L633.048 96.4062H633.986L661.173 30H672.736V110H663.673V49.2188H662.892L637.892 110H629.142L604.142 49.2188H603.361V110H594.298V30ZM705.36 110V30H753.641V38.5937H715.047V65.625H751.141V74.2187H715.047V101.406H754.266V110H705.36ZM725.203 21.875L734.735 3.75H745.516L733.328 21.875H725.203ZM808.989 110H784.302V30H810.083C817.844 30 824.484 31.6016 830.005 34.8047C835.526 37.9818 839.758 42.5521 842.7 48.5156C845.643 54.4531 847.114 61.5625 847.114 69.8437C847.114 78.1771 845.63 85.3516 842.661 91.3672C839.693 97.3568 835.37 101.966 829.693 105.195C824.015 108.398 817.114 110 808.989 110ZM793.989 101.406H808.364C814.979 101.406 820.461 100.13 824.81 97.5781C829.159 95.026 832.401 91.3932 834.536 86.6797C836.672 81.9661 837.739 76.3542 837.739 69.8437C837.739 63.3854 836.685 57.8255 834.575 53.1641C832.466 48.4766 829.315 44.8828 825.122 42.3828C820.93 39.8568 815.708 38.5937 809.458 38.5937H793.989V101.406ZM886.252 30V110H876.564V30H886.252ZM983.251 55H973.563C972.99 52.2135 971.988 49.7656 970.555 47.6562C969.149 45.5469 967.43 43.776 965.399 42.3438C963.394 40.8854 961.167 39.7917 958.72 39.0625C956.272 38.3333 953.72 37.9687 951.063 37.9687C946.22 37.9687 941.832 39.1927 937.899 41.6406C933.993 44.0885 930.881 47.6953 928.563 52.4609C926.272 57.2266 925.126 63.0729 925.126 70C925.126 76.9271 926.272 82.7734 928.563 87.5391C930.881 92.3047 933.993 95.9115 937.899 98.3594C941.832 100.807 946.22 102.031 951.063 102.031C953.72 102.031 956.272 101.667 958.72 100.937C961.167 100.208 963.394 99.1276 965.399 97.6953C967.43 96.237 969.149 94.4531 970.555 92.3437C971.988 90.2083 972.99 87.7604 973.563 85H983.251C982.522 89.0885 981.194 92.7474 979.266 95.9766C977.339 99.2057 974.944 101.953 972.079 104.219C969.214 106.458 965.998 108.164 962.43 109.336C958.889 110.508 955.1 111.094 951.063 111.094C944.24 111.094 938.173 109.427 932.86 106.094C927.548 102.76 923.368 98.0208 920.321 91.875C917.274 85.7292 915.751 78.4375 915.751 70C915.751 61.5625 917.274 54.2708 920.321 48.125C923.368 41.9792 927.548 37.2396 932.86 33.9062C938.173 30.5729 944.24 28.9062 951.063 28.9062C955.1 28.9062 958.889 29.4922 962.43 30.6641C965.998 31.8359 969.214 33.5547 972.079 35.8203C974.944 38.0599 977.339 40.7943 979.266 44.0234C981.194 47.2266 982.522 50.8854 983.251 55ZM1015.39 110H1005.23L1034.61 30H1044.61L1073.98 110H1063.82L1039.92 42.6562H1039.29L1015.39 110ZM1019.14 78.75H1060.07V87.3437H1019.14V78.75ZM1099.64 110V30H1109.33V101.406H1146.52V110H1099.64Z" fill="#313181"/>
</svg>
