<svg width="565" height="141" viewBox="0 0 565 141" fill="none" xmlns="http://www.w3.org/2000/svg">
<path d="M270.49 65.0702C200.431 65.0702 149.888 102.607 120.613 140.895C124.116 133.638 170.656 59.3145 270.74 59.3145C343.051 59.3145 392.844 99.6044 419.616 140.895C380.583 92.3472 332.042 65.0702 270.49 65.0702Z" fill="#FFB356"/>
<path d="M270.49 34.2899C190.422 34.2899 126.868 80.0853 95.8418 123.629C111.355 96.1012 170.655 28.5342 270.74 28.5342C358.314 28.5342 418.114 80.5858 443.636 122.377C404.353 71.8271 346.304 34.2899 270.49 34.2899Z" fill="#FFB356"/>
<path d="M270.24 5.76157C171.406 5.76157 103.099 63.8192 72.0723 107.362C87.5854 79.8351 155.893 0.00585938 270.49 0.00585938C374.578 0.00585938 442.636 65.5709 468.157 107.362C428.874 56.8122 365.07 5.76157 270.24 5.76157Z" fill="#FFB356"/>
</svg>
