<svg width="104" height="43" viewBox="0 0 104 43" fill="none" xmlns="http://www.w3.org/2000/svg">
<path d="M7.36364 5.59091H6.30682C6.24432 5.28693 6.13494 5.01989 5.97869 4.78977C5.82528 4.55966 5.63778 4.36648 5.41619 4.21023C5.19744 4.05114 4.95455 3.93182 4.6875 3.85227C4.42045 3.77273 4.14205 3.73295 3.85227 3.73295C3.32386 3.73295 2.84517 3.86648 2.41619 4.13352C1.99006 4.40057 1.65057 4.79403 1.39773 5.31392C1.14773 5.83381 1.02273 6.47159 1.02273 7.22727C1.02273 7.98295 1.14773 8.62074 1.39773 9.14062C1.65057 9.66051 1.99006 10.054 2.41619 10.321C2.84517 10.5881 3.32386 10.7216 3.85227 10.7216C4.14205 10.7216 4.42045 10.6818 4.6875 10.6023C4.95455 10.5227 5.19744 10.4048 5.41619 10.2486C5.63778 10.0895 5.82528 9.89489 5.97869 9.66477C6.13494 9.43182 6.24432 9.16477 6.30682 8.86364H7.36364C7.28409 9.30966 7.1392 9.70881 6.92898 10.0611C6.71875 10.4134 6.45739 10.7131 6.14489 10.9602C5.83239 11.2045 5.48153 11.3906 5.09233 11.5185C4.70597 11.6463 4.29261 11.7102 3.85227 11.7102C3.10795 11.7102 2.44602 11.5284 1.86648 11.1648C1.28693 10.8011 0.830966 10.2841 0.49858 9.61364C0.166193 8.94318 0 8.14773 0 7.22727C0 6.30682 0.166193 5.51136 0.49858 4.84091C0.830966 4.17045 1.28693 3.65341 1.86648 3.28977C2.44602 2.92614 3.10795 2.74432 3.85227 2.74432C4.29261 2.74432 4.70597 2.80824 5.09233 2.93608C5.48153 3.06392 5.83239 3.25142 6.14489 3.49858C6.45739 3.7429 6.71875 4.04119 6.92898 4.39347C7.1392 4.7429 7.28409 5.14205 7.36364 5.59091Z" fill="black"/>
<path d="M9.07138 11.5909V2.86364H14.3384V3.80114H10.1282V6.75H14.0657V7.6875H10.1282V10.6534H14.4066V11.5909H9.07138Z" fill="black"/>
<path d="M23.1637 2.86364V11.5909H22.141L17.3853 4.73864H17.3001V11.5909H16.2433V2.86364H17.266L22.0387 9.73295H22.1239V2.86364H23.1637Z" fill="black"/>
<path d="M24.8011 3.80114V2.86364H31.3466V3.80114H28.6023V11.5909H27.5455V3.80114H24.8011Z" fill="black"/>
<path d="M32.9776 11.5909V2.86364H35.9265C36.6083 2.86364 37.168 2.98011 37.6055 3.21307C38.043 3.44318 38.3668 3.75994 38.5771 4.16335C38.7873 4.56676 38.8924 5.02557 38.8924 5.53977C38.8924 6.05398 38.7873 6.50994 38.5771 6.90767C38.3668 7.3054 38.0444 7.6179 37.6097 7.84517C37.1751 8.0696 36.6197 8.18182 35.9435 8.18182H33.5572V7.22727H35.9094C36.3754 7.22727 36.7504 7.15909 37.0344 7.02273C37.3214 6.88636 37.5288 6.69318 37.6566 6.44318C37.7873 6.19034 37.8526 5.8892 37.8526 5.53977C37.8526 5.19034 37.7873 4.88494 37.6566 4.62358C37.5259 4.36222 37.3171 4.16051 37.0302 4.01847C36.7433 3.87358 36.364 3.80114 35.8924 3.80114H34.0344V11.5909H32.9776ZM37.0856 7.67045L39.2333 11.5909H38.006L35.8924 7.67045H37.0856Z" fill="black"/>
<path d="M40.6534 11.5909V2.86364H45.9205V3.80114H41.7102V6.75H45.6477V7.6875H41.7102V10.6534H45.9886V11.5909H40.6534Z" fill="black"/>
<path d="M51.2003 2.86364H52.4616L55.4276 10.108H55.5298L58.4957 2.86364H59.7571V11.5909H58.7685V4.96023H58.6832L55.956 11.5909H55.0014L52.2741 4.96023H52.1889V11.5909H51.2003V2.86364Z" fill="black"/>
<path d="M61.8761 11.5909V2.86364H67.1431V3.80114H62.9329V6.75H66.8704V7.6875H62.9329V10.6534H67.2113V11.5909H61.8761ZM64.0408 1.97727L65.0806 0H66.2567L64.9272 1.97727H64.0408Z" fill="black"/>
<path d="M71.7411 11.5909H69.0479V2.86364H71.8604C72.707 2.86364 73.4315 3.03835 74.0337 3.38778C74.636 3.73438 75.0977 4.23295 75.4187 4.88352C75.7397 5.53125 75.9002 6.30682 75.9002 7.21023C75.9002 8.11932 75.7383 8.90199 75.4144 9.55824C75.0906 10.2116 74.619 10.7145 73.9996 11.0668C73.3803 11.4162 72.6275 11.5909 71.7411 11.5909ZM70.1048 10.6534H71.6729C72.3945 10.6534 72.9925 10.5142 73.467 10.2358C73.9414 9.95739 74.2951 9.56108 74.5281 9.04688C74.761 8.53267 74.8775 7.92045 74.8775 7.21023C74.8775 6.50568 74.7624 5.89915 74.5323 5.39062C74.3022 4.87926 73.9585 4.48722 73.5011 4.21449C73.0437 3.93892 72.4741 3.80114 71.7923 3.80114H70.1048V10.6534Z" fill="black"/>
<path d="M78.7298 2.86364V11.5909H77.6729V2.86364H78.7298Z" fill="black"/>
<path d="M87.8715 5.59091H86.8146C86.7521 5.28693 86.6428 5.01989 86.4865 4.78977C86.3331 4.55966 86.1456 4.36648 85.924 4.21023C85.7053 4.05114 85.4624 3.93182 85.1953 3.85227C84.9283 3.77273 84.6499 3.73295 84.3601 3.73295C83.8317 3.73295 83.353 3.86648 82.924 4.13352C82.4979 4.40057 82.1584 4.79403 81.9055 5.31392C81.6555 5.83381 81.5305 6.47159 81.5305 7.22727C81.5305 7.98295 81.6555 8.62074 81.9055 9.14062C82.1584 9.66051 82.4979 10.054 82.924 10.321C83.353 10.5881 83.8317 10.7216 84.3601 10.7216C84.6499 10.7216 84.9283 10.6818 85.1953 10.6023C85.4624 10.5227 85.7053 10.4048 85.924 10.2486C86.1456 10.0895 86.3331 9.89489 86.4865 9.66477C86.6428 9.43182 86.7521 9.16477 86.8146 8.86364H87.8715C87.7919 9.30966 87.647 9.70881 87.4368 10.0611C87.2266 10.4134 86.9652 10.7131 86.6527 10.9602C86.3402 11.2045 85.9893 11.3906 85.6001 11.5185C85.2138 11.6463 84.8004 11.7102 84.3601 11.7102C83.6158 11.7102 82.9538 11.5284 82.3743 11.1648C81.7947 10.8011 81.3388 10.2841 81.0064 9.61364C80.674 8.94318 80.5078 8.14773 80.5078 7.22727C80.5078 6.30682 80.674 5.51136 81.0064 4.84091C81.3388 4.17045 81.7947 3.65341 82.3743 3.28977C82.9538 2.92614 83.6158 2.74432 84.3601 2.74432C84.8004 2.74432 85.2138 2.80824 85.6001 2.93608C85.9893 3.06392 86.3402 3.25142 86.6527 3.49858C86.9652 3.7429 87.2266 4.04119 87.4368 4.39347C87.647 4.7429 87.7919 5.14205 87.8715 5.59091Z" fill="black"/>
<path d="M89.9371 11.5909H88.8292L92.0337 2.86364H93.1246L96.3292 11.5909H95.2212L92.6133 4.24432H92.5451L89.9371 11.5909ZM90.3462 8.18182H94.8121V9.11932H90.3462V8.18182Z" fill="black"/>
<path d="M97.6886 11.5909V2.86364H98.7454V10.6534H102.802V11.5909H97.6886Z" fill="black"/>
<path d="M0.28418 42.2714V18.9102H9.27699C11.0058 18.9102 12.4786 19.2486 13.6955 19.9254C14.9123 20.5946 15.8398 21.5262 16.4779 22.7201C17.1234 23.9064 17.4462 25.2752 17.4462 26.8266C17.4462 28.3779 17.1197 29.7467 16.4668 30.933C15.8139 32.1193 14.8678 33.0433 13.6287 33.7049C12.397 34.3665 10.9056 34.6973 9.15457 34.6973H3.42276V30.7391H8.37549C9.30296 30.7391 10.0672 30.5756 10.6682 30.2486C11.2766 29.914 11.7292 29.4539 12.026 28.8684C12.3302 28.2752 12.4824 27.5946 12.4824 26.8266C12.4824 26.0509 12.3302 25.3741 12.026 24.7961C11.7292 24.2106 11.2766 23.7581 10.6682 23.4387C10.0598 23.1117 9.28812 22.9482 8.35323 22.9482H5.10335V42.2714H0.28418Z" fill="black"/>
<path d="M21.8731 42.2714H16.7089L24.5776 18.9102H30.788L38.6455 42.2714H33.4814L27.7718 24.2486H27.5937L21.8731 42.2714ZM21.5503 33.0889H33.7485V36.9444H21.5503V33.0889Z" fill="black"/>
<path d="M41.389 42.2714V18.9102H50.3818C52.1032 18.9102 53.5724 19.2258 54.7892 19.857C56.0135 20.4806 56.9447 21.3665 57.5828 22.5148C58.2283 23.6555 58.5511 24.9977 58.5511 26.5414C58.5511 28.0927 58.2246 29.4273 57.5716 30.5452C56.9187 31.6555 55.9727 32.5072 54.7336 33.1003C53.5019 33.6935 52.0105 33.9901 50.2594 33.9901H44.2382V30.0205H49.4803C50.4004 30.0205 51.1646 29.8912 51.773 29.6326C52.3815 29.3741 52.8341 28.9863 53.1309 28.4691C53.4351 27.952 53.5872 27.3095 53.5872 26.5414C53.5872 25.7657 53.4351 25.1117 53.1309 24.5794C52.8341 24.0471 52.3778 23.6441 51.7619 23.3703C51.1535 23.0889 50.3855 22.9482 49.4581 22.9482H46.2082V42.2714H41.389ZM53.6985 31.6403L59.3635 42.2714H54.0435L48.5009 31.6403H53.6985Z" fill="black"/>
<path d="M82.9029 30.5908C82.9029 33.1383 82.4317 35.3057 81.4894 37.0927C80.5545 38.8798 79.2783 40.2448 77.6608 41.1878C76.0507 42.1231 74.2402 42.5908 72.2295 42.5908C70.2039 42.5908 68.386 42.1193 66.7759 41.1764C65.1658 40.2334 63.8933 38.8684 62.9584 37.0813C62.0235 35.2942 61.5561 33.1307 61.5561 30.5908C61.5561 28.0433 62.0235 25.876 62.9584 24.0889C63.8933 22.3018 65.1658 20.9406 66.7759 20.0053C68.386 19.0623 70.2039 18.5908 72.2295 18.5908C74.2402 18.5908 76.0507 19.0623 77.6608 20.0053C79.2783 20.9406 80.5545 22.3018 81.4894 24.0889C82.4317 25.876 82.9029 28.0433 82.9029 30.5908ZM78.0169 30.5908C78.0169 28.9406 77.7758 27.549 77.2935 26.4159C76.8186 25.2828 76.1471 24.4235 75.279 23.838C74.4109 23.2524 73.3944 22.9596 72.2295 22.9596C71.0646 22.9596 70.0481 23.2524 69.1799 23.838C68.3118 24.4235 67.6366 25.2828 67.1543 26.4159C66.6795 27.549 66.442 28.9406 66.442 30.5908C66.442 32.241 66.6795 33.6326 67.1543 34.7657C67.6366 35.8988 68.3118 36.7581 69.1799 37.3437C70.0481 37.9292 71.0646 38.222 72.2295 38.222C73.3944 38.222 74.4109 37.9292 75.279 37.3437C76.1471 36.7581 76.8186 35.8988 77.2935 34.7657C77.7758 33.6326 78.0169 32.241 78.0169 30.5908Z" fill="black"/>
<path d="M84.564 22.9825V18.9102H103.284V22.9825H96.3058V42.2714H91.5423V22.9825H84.564Z" fill="black"/>
</svg>
