<svg width="800" height="600" viewBox="0 0 800 600" fill="none" xmlns="http://www.w3.org/2000/svg">
<path fill-rule="evenodd" clip-rule="evenodd" d="M750 500C750 505.075 749.025 509.875 747.625 514.45L525 275L750 100V500ZM88.9 548.65L314.5 308.25L400 372.875L481.8 307.85L711.1 548.65C707.525 549.475 92.475 549.475 88.9 548.65ZM50 500V100L275 275L52.375 514.45C50.975 509.875 50 505.075 50 500ZM725 50L400 300L75 50H725ZM700 0H100C44.775 0 0 44.775 0 100V500C0 555.225 44.775 600 100 600H700C755.225 600 800 555.225 800 500V100C800 44.775 755.225 0 700 0Z" fill="white"/>
</svg>
