<svg width="326" height="112" viewBox="0 0 326 112" fill="none" xmlns="http://www.w3.org/2000/svg">
<path d="M160.885 45.5452C230.945 45.5452 271.979 11.0109 285.241 0C282.79 2.02951 243.706 51.3009 160.635 51.3009C88.3241 51.3009 49.5412 11.5114 40.0332 2.25223C63.0527 19.7696 99.3334 45.5452 160.885 45.5452Z" fill="white"/>
<path d="M161.136 76.8547C231.195 76.8547 285.241 40.5687 305.508 22.5508C296.75 32.5607 243.956 82.6104 160.885 82.6104C88.5743 82.6104 31.7762 39.3174 19.2656 24.3025C48.04 48.8268 99.5836 76.8547 161.136 76.8547Z" fill="white"/>
<path d="M161.637 105.633C231.696 105.633 291.497 73.6011 325.025 43.5713C301.005 68.5961 244.457 111.389 161.387 111.389C89.0754 111.389 28.7743 76.3538 0 45.5733C42.7862 80.8583 100.085 105.633 161.637 105.633Z" fill="white"/>
</svg>
