<svg width="565" height="200" viewBox="0 0 565 200" fill="none" xmlns="http://www.w3.org/2000/svg">
<path d="M144.343 171.562L152.607 153.09H186.785V171.562H144.343ZM170.471 102.079L215.031 192.711H189.969L153.123 113.733C153.123 113.733 152.5 112.002 150.657 112.025C148.826 112.049 148.259 113.733 148.259 113.733L112.711 192.711H87.6504L132.21 102.079C132.21 102.079 137.591 92.3791 151.34 92.3215C165.09 92.2645 170.471 102.079 170.471 102.079Z" fill="#313181"/>
<path d="M363.728 192.937C372.866 197.527 383.481 199.822 395.573 199.822C407.665 199.822 418.234 197.527 427.279 192.937C436.418 188.347 443.525 181.976 448.602 173.826C451.24 169.541 453.193 164.89 454.46 159.872C454.84 158.368 455.158 156.831 455.414 155.262H431.086C430.64 156.864 430.082 158.401 429.411 159.872C428.94 160.902 428.414 161.899 427.833 162.865C424.879 167.924 420.633 171.811 415.095 174.528C409.649 177.245 403.142 178.603 395.573 178.603C388.096 178.603 381.589 177.245 376.05 174.528C370.512 171.811 366.22 167.924 363.174 162.865C362.611 161.899 362.101 160.902 361.644 159.872C360.995 158.405 360.455 156.874 360.024 155.277H335.733C335.99 156.841 336.307 158.373 336.686 159.872C337.953 164.89 339.906 169.541 342.544 173.826C347.62 181.976 354.682 188.347 363.728 192.937Z" fill="#313181"/>
<path d="M363.728 97.0997C354.682 101.69 347.62 108.107 342.544 116.351C340.002 120.433 338.096 124.866 336.827 129.653C336.385 131.317 336.021 133.024 335.733 134.775H360.02C360.502 132.985 361.121 131.278 361.877 129.653C362.272 128.803 362.704 127.976 363.174 127.172C366.22 122.113 370.512 118.225 376.05 115.508C381.589 112.791 388.096 111.433 395.573 111.433C403.142 111.433 409.649 112.791 415.095 115.508C420.633 118.225 424.879 122.113 427.833 127.172C428.318 127.976 428.764 128.803 429.171 129.653C429.95 131.278 430.588 132.985 431.086 134.775H455.412C455.124 133.024 454.76 131.317 454.319 129.653C453.05 124.866 451.144 120.433 448.602 116.351C443.525 108.107 436.418 101.69 427.279 97.0997C418.234 92.5091 407.665 90.2139 395.573 90.2139C383.481 90.2139 372.866 92.5091 363.728 97.0997Z" fill="#313181"/>
<path d="M500.319 133.75H523.714V197.656H500.319V133.75ZM458.92 92.2627H564.979V113.341H458.92V92.2627Z" fill="#37A4B3"/>
<path d="M77.951 96.619C71.9509 93.7146 64.8434 92.2627 56.6284 92.2627H0V111.936H23.5376H55.3824C60.8285 111.936 65.0741 113.295 68.1206 116.011C71.2588 118.634 72.8281 122.335 72.8281 127.113C72.8281 131.796 71.2588 135.497 68.1206 138.214C65.0741 140.931 60.8285 142.289 55.3824 142.289H23.5376H11.6118C11.6118 142.289 6.92701 142.176 3.52408 145.531C0.121152 148.884 0 153.981 0 153.981V197.774H23.5376V161.962H56.6284C64.8434 161.962 71.9509 160.51 77.951 157.606C83.9505 154.608 88.5194 150.533 91.6585 145.38C94.8888 140.134 96.5041 134.045 96.5041 127.113C96.5041 120.18 94.8888 114.091 91.6585 108.844C88.5194 103.598 83.9505 99.5229 77.951 96.619Z" fill="#37A4B3"/>
<path d="M260.516 148.332H287.376L326.559 197.656H299.006L260.516 148.332Z" fill="#37A4B3"/>
<path d="M305.291 96.619C299.202 93.7146 291.988 92.2627 283.651 92.2627H226.178V111.936H250.066H282.386C287.913 111.936 292.223 113.295 295.314 116.011C298.499 118.634 300.092 122.335 300.092 127.113C300.092 131.796 298.499 135.497 295.314 138.214C292.223 140.931 287.913 142.289 282.386 142.289H250.066H237.963C237.963 142.289 233.208 142.176 229.754 145.531C226.3 148.884 226.178 153.981 226.178 153.981V197.774H250.066V161.962H283.651C291.988 161.962 299.202 160.51 305.291 157.606C311.38 154.608 316.017 150.533 319.203 145.38C322.482 140.134 324.121 134.045 324.121 127.113C324.121 120.18 322.482 114.091 319.203 108.844C316.017 103.598 311.38 99.5229 305.291 96.619Z" fill="#37A4B3"/>
<path d="M37.063 25.6504H32.2149C31.9282 24.2561 31.4265 23.0309 30.7097 21.9748C30.006 20.9193 29.1459 20.0329 28.1294 19.3162C27.126 18.5859 26.0118 18.0389 24.7868 17.6735C23.5617 17.3087 22.2847 17.1265 20.9554 17.1265C18.5315 17.1265 16.3356 17.7391 14.3678 18.9643C12.413 20.1895 10.8557 21.9943 9.69585 24.3797C8.54903 26.7651 7.97565 29.691 7.97565 33.1579C7.97565 36.6248 8.54903 39.5507 9.69585 41.9361C10.8557 44.3215 12.413 46.1263 14.3678 47.3515C16.3356 48.5767 18.5315 49.1893 20.9554 49.1893C22.2847 49.1893 23.5617 49.0071 24.7868 48.6418C26.0118 48.2769 27.126 47.7364 28.1294 47.0191C29.1459 46.2894 30.006 45.3965 30.7097 44.341C31.4265 43.2719 31.9282 42.0467 32.2149 40.6653H37.063C36.6979 42.7119 36.0332 44.5427 35.0689 46.1593C34.1045 47.7754 32.9056 49.1503 31.4721 50.2844C30.0386 51.405 28.4292 52.2588 26.6438 52.8454C24.8714 53.432 22.9753 53.7253 20.9554 53.7253C17.541 53.7253 14.5046 52.891 11.8461 51.2228C9.18763 49.5542 7.09601 47.1823 5.57127 44.1063C4.04653 41.0302 3.28418 37.3806 3.28418 33.1579C3.28418 28.9347 4.04653 25.2856 5.57127 22.2095C7.09601 19.1335 9.18763 16.7616 11.8461 15.093C14.5046 13.4248 17.541 12.5905 20.9554 12.5905C22.9753 12.5905 24.8714 12.8838 26.6438 13.4704C28.4292 14.0569 30.0386 14.9173 31.4721 16.0509C32.9056 17.172 34.1045 18.5404 35.0689 20.1565C36.0332 21.7601 36.6979 23.5909 37.063 25.6504ZM51.5022 53.1778V13.138H75.6632V17.4393H56.3498V30.9682H74.4121V35.2695H56.3498V48.8765H75.9759V53.1778H51.5022ZM122.752 13.138V53.1778H118.061L96.2456 21.7401H95.8542V53.1778H91.0066V13.138H95.6981L117.592 44.6538H117.982V13.138H122.752ZM136.869 17.4393V13.138H166.894V17.4393H154.306V53.1778H149.458V17.4393H136.869ZM180.982 53.1778V13.138H194.509C197.637 13.138 200.204 13.6726 202.211 14.7411C204.218 15.7967 205.703 17.2501 206.668 19.1009C207.632 20.9518 208.114 23.0569 208.114 25.4157C208.114 27.7751 207.632 29.8666 206.668 31.6914C205.703 33.5163 204.224 34.9502 202.23 35.9927C200.237 37.0222 197.689 37.5372 194.587 37.5372H183.641V33.1579H194.431C196.568 33.1579 198.288 32.8451 199.592 32.2195C200.908 31.5938 201.859 30.7075 202.445 29.5603C203.045 28.4007 203.345 27.0188 203.345 25.4157C203.345 23.8126 203.045 22.4117 202.445 21.2125C201.846 20.0134 200.888 19.0879 199.572 18.4363C198.256 17.7716 196.516 17.4393 194.353 17.4393H185.83V53.1778H180.982ZM199.826 35.1909L209.678 53.1778H204.048L194.353 35.1909H199.826ZM222.798 53.1778V13.138H246.959V17.4393H227.646V30.9682H245.708V35.2695H227.646V48.8765H247.272V53.1778H222.798ZM284.39 13.138H290.176L303.781 46.374H304.251L317.856 13.138H323.642V53.1778H319.107V22.7571H318.716L306.205 53.1778H301.827L289.316 22.7571H288.925V53.1778H284.39V13.138ZM339.968 53.1778V13.138H364.129V17.4393H344.815V30.9682H362.878V35.2695H344.815V48.8765H364.441V53.1778H339.968ZM349.898 9.0715L354.668 0H360.063L353.964 9.0715H349.898ZM391.826 53.1778H379.472V13.138H392.374C396.257 13.138 399.58 13.9398 402.343 15.5429C405.106 17.133 407.224 19.4203 408.696 22.4052C410.169 25.3767 410.905 28.9347 410.905 33.0798C410.905 37.2505 410.162 40.8415 408.676 43.852C407.191 46.85 405.028 49.1568 402.187 50.7729C399.346 52.376 395.892 53.1778 391.826 53.1778ZM384.32 48.8765H391.513C394.824 48.8765 397.567 48.2379 399.743 46.9606C401.92 45.6833 403.542 43.865 404.61 41.5062C405.679 39.1468 406.213 36.338 406.213 33.0798C406.213 29.8471 405.686 27.0648 404.63 24.7315C403.575 22.3857 401.998 20.5869 399.899 19.3357C397.802 18.0714 395.188 17.4393 392.061 17.4393H384.32V48.8765ZM430.49 13.138V53.1778H425.642V13.138H430.49ZM479.031 25.6504H474.183C473.896 24.2561 473.395 23.0309 472.678 21.9748C471.974 20.9193 471.114 20.0329 470.097 19.3162C469.094 18.5859 467.98 18.0389 466.755 17.6735C465.53 17.3087 464.253 17.1265 462.923 17.1265C460.5 17.1265 458.304 17.7391 456.336 18.9643C454.381 20.1895 452.824 21.9943 451.664 24.3797C450.517 26.7651 449.944 29.691 449.944 33.1579C449.944 36.6248 450.517 39.5507 451.664 41.9361C452.824 44.3215 454.381 46.1263 456.336 47.3515C458.304 48.5767 460.5 49.1893 462.923 49.1893C464.253 49.1893 465.53 49.0071 466.755 48.6418C467.98 48.2769 469.094 47.7364 470.097 47.0191C471.114 46.2894 471.974 45.3965 472.678 44.341C473.395 43.2719 473.896 42.0467 474.183 40.6653H479.031C478.666 42.7119 478.002 44.5427 477.037 46.1593C476.072 47.7754 474.874 49.1503 473.44 50.2844C472.006 51.405 470.397 52.2588 468.612 52.8454C466.84 53.432 464.944 53.7253 462.923 53.7253C459.509 53.7253 456.473 52.891 453.814 51.2228C451.156 49.5542 449.064 47.1823 447.539 44.1063C446.014 41.0302 445.252 37.3806 445.252 33.1579C445.252 28.9347 446.014 25.2856 447.539 22.2095C449.064 19.1335 451.156 16.7616 453.814 15.093C456.473 13.4248 459.509 12.5905 462.923 12.5905C464.944 12.5905 466.84 12.8838 468.612 13.4704C470.397 14.0569 472.006 14.9173 473.44 16.0509C474.874 17.172 476.072 18.5404 477.037 20.1565C478.002 21.7601 478.666 23.5909 479.031 25.6504ZM495.114 53.1778H490.03L504.732 13.138H509.736L524.434 53.1778H519.35L507.389 19.4723H507.074L495.114 53.1778ZM496.991 37.5372H517.473V41.8385H496.991V37.5372ZM537.275 53.1778V13.138H542.124V48.8765H560.735V53.1778H537.275Z" fill="#313181"/>
</svg>
