<svg width="591" height="504" viewBox="0 0 591 504" fill="none" xmlns="http://www.w3.org/2000/svg">
<path d="M282.739 426.145C352.798 426.145 393.833 391.611 407.094 380.6C404.643 382.629 365.559 431.901 282.489 431.901C210.178 431.901 171.395 392.111 161.887 382.852C184.906 400.369 221.187 426.145 282.739 426.145Z" fill="#FFB356"/>
<path d="M282.989 457.454C353.048 457.454 407.094 421.168 427.361 403.15C418.604 413.16 365.809 463.21 282.739 463.21C210.428 463.21 153.63 419.917 141.119 404.902C169.893 429.426 221.437 457.454 282.989 457.454Z" fill="#FFB356"/>
<path d="M283.49 486.232C353.55 486.232 413.35 454.201 446.878 424.171C422.858 449.196 366.31 491.988 283.24 491.988C210.929 491.988 150.628 456.953 121.854 426.173C164.64 461.458 221.938 486.232 283.49 486.232Z" fill="#FFB356"/>
<path d="M283.49 71.0702C213.431 71.0702 162.888 108.607 133.613 146.895C137.116 139.638 183.656 65.3145 283.74 65.3145C356.051 65.3145 405.844 105.604 432.616 146.895C393.583 98.3472 345.042 71.0702 283.49 71.0702Z" fill="#FFB356"/>
<path d="M283.49 40.2899C203.422 40.2899 139.868 86.0853 108.842 129.629C124.355 102.101 183.655 34.5342 283.74 34.5342C371.314 34.5342 431.114 86.5858 456.636 128.377C417.353 77.8271 359.304 40.2899 283.49 40.2899Z" fill="#FFB356"/>
<path d="M283.24 11.7616C184.406 11.7616 116.099 69.8192 85.0723 113.362C100.585 85.8351 168.893 6.00586 283.49 6.00586C387.578 6.00586 455.636 71.5709 481.157 113.362C441.874 62.8122 378.07 11.7616 283.24 11.7616Z" fill="#FFB356"/>
<path d="M157.354 328.593L165.618 310.122H199.796V328.593H157.354ZM183.482 259.11L228.041 349.742H202.98L166.134 270.764C166.134 270.764 165.51 269.033 163.668 269.056C161.836 269.08 161.27 270.764 161.27 270.764L125.722 349.742H100.661L145.22 259.11C145.22 259.11 150.601 249.41 164.351 249.353C178.101 249.296 183.482 259.11 183.482 259.11Z" fill="#313181"/>
<path d="M376.738 349.968C385.877 354.558 396.492 356.854 408.584 356.854C420.676 356.854 431.244 354.558 440.29 349.968C449.428 345.378 456.536 339.007 461.613 330.857C464.251 326.573 466.204 321.921 467.471 316.903C467.85 315.399 468.169 313.863 468.425 312.293H444.096C443.651 313.896 443.092 315.432 442.421 316.903C441.951 317.933 441.425 318.931 440.844 319.896C437.89 324.955 433.644 328.842 428.106 331.559C422.66 334.276 416.153 335.635 408.584 335.635C401.107 335.635 394.599 334.276 389.061 331.559C383.523 328.842 379.231 324.955 376.185 319.896C375.621 318.931 375.111 317.933 374.655 316.903C374.006 315.437 373.466 313.905 373.035 312.308H348.744C349 313.872 349.318 315.404 349.696 316.903C350.964 321.921 352.917 326.573 355.555 330.857C360.631 339.007 367.693 345.378 376.738 349.968Z" fill="#313181"/>
<path d="M376.738 254.131C367.693 258.722 360.631 265.138 355.555 273.383C353.013 277.464 351.107 281.898 349.838 286.684C349.396 288.348 349.032 290.056 348.744 291.806H373.031C373.513 290.016 374.132 288.309 374.888 286.684C375.283 285.834 375.715 285.008 376.185 284.203C379.231 279.144 383.523 275.256 389.061 272.539C394.599 269.823 401.107 268.464 408.584 268.464C416.153 268.464 422.66 269.823 428.106 272.539C433.644 275.256 437.89 279.144 440.844 284.203C441.328 285.008 441.774 285.834 442.182 286.684C442.961 288.309 443.599 290.016 444.096 291.806H468.423C468.135 290.056 467.771 288.348 467.329 286.684C466.06 281.898 464.155 277.464 461.613 273.383C456.536 265.138 449.428 258.722 440.29 254.131C431.244 249.54 420.676 247.245 408.584 247.245C396.492 247.245 385.877 249.54 376.738 254.131Z" fill="#313181"/>
<path d="M513.33 290.781H536.724V354.687H513.33V290.781ZM471.931 249.294H577.989V270.372H471.931V249.294Z" fill="#37A4B3"/>
<path d="M90.9617 253.65C84.9616 250.746 77.8541 249.294 69.6391 249.294H13.0107V268.967H36.5484H68.3931C73.8392 268.967 78.0848 270.326 81.1314 273.043C84.2695 275.666 85.8389 279.366 85.8389 284.144C85.8389 288.828 84.2695 292.528 81.1314 295.245C78.0848 297.962 73.8392 299.32 68.3931 299.32H36.5484H24.6226C24.6226 299.32 19.9378 299.207 16.5348 302.562C13.1319 305.916 13.0107 311.013 13.0107 311.013V354.805H36.5484V318.994H69.6391C77.8541 318.994 84.9616 317.542 90.9617 314.637C96.9613 311.639 101.53 307.564 104.669 302.412C107.9 297.165 109.515 291.076 109.515 284.144C109.515 277.211 107.9 271.122 104.669 265.875C101.53 260.629 96.9613 256.554 90.9617 253.65Z" fill="#37A4B3"/>
<path d="M273.526 305.363H300.387L339.57 354.687H312.017L273.526 305.363Z" fill="#37A4B3"/>
<path d="M318.302 253.65C312.212 250.746 304.999 249.294 296.662 249.294H239.188V268.967H263.077H295.397C300.924 268.967 305.233 270.326 308.325 273.043C311.51 275.666 313.103 279.366 313.103 284.144C313.103 288.828 311.51 292.528 308.325 295.245C305.233 297.962 300.924 299.32 295.397 299.32H263.077H250.973C250.973 299.32 246.218 299.207 242.765 302.562C239.311 305.916 239.188 311.013 239.188 311.013V354.805H263.077V318.994H296.662C304.999 318.994 312.212 317.542 318.302 314.637C324.391 311.639 329.028 307.564 332.214 302.412C335.492 297.165 337.132 291.076 337.132 284.144C337.132 277.211 335.492 271.122 332.214 265.875C329.028 260.629 324.391 256.554 318.302 253.65Z" fill="#37A4B3"/>
<path d="M50.0738 182.682H45.2256C44.939 181.287 44.4372 180.062 43.7205 179.006C43.0167 177.951 42.1567 177.064 41.1401 176.347C40.1367 175.617 39.0225 175.07 37.7975 174.705C36.5725 174.34 35.2954 174.158 33.9661 174.158C31.5422 174.158 29.3463 174.77 27.3785 175.996C25.4237 177.221 23.8664 179.026 22.7066 181.411C21.5598 183.796 20.9864 186.722 20.9864 190.189C20.9864 193.656 21.5598 196.582 22.7066 198.967C23.8664 201.353 25.4237 203.158 27.3785 204.383C29.3463 205.608 31.5422 206.221 33.9661 206.221C35.2954 206.221 36.5725 206.038 37.7975 205.673C39.0225 205.308 40.1367 204.768 41.1401 204.05C42.1567 203.321 43.0167 202.428 43.7205 201.372C44.4372 200.303 44.939 199.078 45.2256 197.697H50.0738C49.7086 199.743 49.044 201.574 48.0796 203.191C47.1152 204.807 45.9163 206.182 44.4828 207.316C43.0493 208.436 41.4399 209.29 39.6545 209.877C37.8822 210.463 35.9861 210.757 33.9661 210.757C30.5518 210.757 27.5154 209.922 24.8569 208.254C22.1984 206.585 20.1067 204.214 18.582 201.138C17.0573 198.061 16.2949 194.412 16.2949 190.189C16.2949 185.966 17.0573 182.317 18.582 179.241C20.1067 176.165 22.1984 173.793 24.8569 172.124C27.5154 170.456 30.5518 169.622 33.9661 169.622C35.9861 169.622 37.8822 169.915 39.6545 170.502C41.4399 171.088 43.0493 171.949 44.4828 173.082C45.9163 174.203 47.1152 175.572 48.0796 177.188C49.044 178.791 49.7086 180.622 50.0738 182.682ZM64.513 210.209V170.169H88.6739V174.471H69.3606V187.999H87.4228V192.301H69.3606V205.908H88.9867V210.209H64.513ZM135.763 170.169V210.209H131.071L109.256 178.771H108.865V210.209H104.017V170.169H108.709L130.602 201.685H130.993V170.169H135.763ZM149.88 174.471V170.169H179.905V174.471H167.316V210.209H162.469V174.471H149.88ZM193.993 210.209V170.169H207.52C210.648 170.169 213.215 170.704 215.221 171.772C217.229 172.828 218.714 174.281 219.679 176.132C220.643 177.983 221.125 180.088 221.125 182.447C221.125 184.806 220.643 186.898 219.679 188.723C218.714 190.548 217.235 191.981 215.241 193.024C213.247 194.053 210.7 194.568 207.598 194.568H196.651V190.189H207.441C209.579 190.189 211.299 189.876 212.602 189.251C213.918 188.625 214.87 187.739 215.456 186.592C216.056 185.432 216.355 184.05 216.355 182.447C216.355 180.844 216.056 179.443 215.456 178.244C214.857 177.045 213.899 176.119 212.583 175.468C211.267 174.803 209.527 174.471 207.363 174.471H198.841V210.209H193.993ZM212.837 192.222L222.689 210.209H217.059L207.363 192.222H212.837ZM235.809 210.209V170.169H259.97V174.471H240.656V187.999H258.719V192.301H240.656V205.908H260.283V210.209H235.809ZM297.4 170.169H303.187L316.792 203.405H317.261L330.866 170.169H336.653V210.209H332.117V179.788H331.727L319.216 210.209H314.837L302.327 179.788H301.936V210.209H297.4V170.169ZM352.979 210.209V170.169H377.139V174.471H357.826V187.999H375.888V192.301H357.826V205.908H377.452V210.209H352.979ZM362.908 166.103L367.678 157.031H373.074L366.974 166.103H362.908ZM404.837 210.209H392.483V170.169H405.384C409.268 170.169 412.591 170.971 415.354 172.574C418.117 174.164 420.234 176.452 421.707 179.436C423.179 182.408 423.916 185.966 423.916 190.111C423.916 194.282 423.173 197.873 421.687 200.883C420.202 203.881 418.039 206.188 415.198 207.804C412.356 209.407 408.903 210.209 404.837 210.209ZM397.331 205.908H404.524C407.834 205.908 410.578 205.269 412.754 203.992C414.93 202.715 416.553 200.896 417.621 198.537C418.69 196.178 419.224 193.369 419.224 190.111C419.224 186.878 418.697 184.096 417.641 181.763C416.585 179.417 415.008 177.618 412.91 176.367C410.812 175.103 408.199 174.471 405.072 174.471H397.331V205.908ZM443.501 170.169V210.209H438.653V170.169H443.501ZM492.042 182.682H487.194C486.907 181.287 486.405 180.062 485.688 179.006C484.985 177.951 484.124 177.064 483.108 176.347C482.105 175.617 480.99 175.07 479.766 174.705C478.541 174.34 477.264 174.158 475.934 174.158C473.51 174.158 471.315 174.77 469.346 175.996C467.392 177.221 465.834 179.026 464.675 181.411C463.528 183.796 462.955 186.722 462.955 190.189C462.955 193.656 463.528 196.582 464.675 198.967C465.834 201.353 467.392 203.158 469.346 204.383C471.315 205.608 473.51 206.221 475.934 206.221C477.264 206.221 478.541 206.038 479.766 205.673C480.99 205.308 482.105 204.768 483.108 204.05C484.124 203.321 484.985 202.428 485.688 201.372C486.405 200.303 486.907 199.078 487.194 197.697H492.042C491.677 199.743 491.012 201.574 490.047 203.191C489.083 204.807 487.885 206.182 486.451 207.316C485.017 208.436 483.408 209.29 481.622 209.877C479.85 210.463 477.954 210.757 475.934 210.757C472.52 210.757 469.484 209.922 466.825 208.254C464.167 206.585 462.075 204.214 460.55 201.138C459.025 198.061 458.263 194.412 458.263 190.189C458.263 185.966 459.025 182.317 460.55 179.241C462.075 176.165 464.167 173.793 466.825 172.124C469.484 170.456 472.52 169.622 475.934 169.622C477.954 169.622 479.85 169.915 481.622 170.502C483.408 171.088 485.017 171.949 486.451 173.082C487.885 174.203 489.083 175.572 490.047 177.188C491.012 178.791 491.677 180.622 492.042 182.682ZM508.125 210.209H503.04L517.743 170.169H522.747L537.445 210.209H532.36L520.4 176.504H520.085L508.125 210.209ZM510.001 194.568H530.484V198.87H510.001V194.568ZM550.285 210.209V170.169H555.135V205.908H573.745V210.209H550.285Z" fill="#313181"/>
</svg>
