<svg width="565" height="135" viewBox="0 0 565 135" fill="none" xmlns="http://www.w3.org/2000/svg">
<path d="M269.739 69.1448C339.798 69.1448 380.833 34.6105 394.094 23.5996C391.643 25.6291 352.559 74.9005 269.489 74.9005C197.178 74.9005 158.395 35.111 148.887 25.8518C171.906 43.3692 208.187 69.1448 269.739 69.1448Z" fill="#FFB356"/>
<path d="M269.989 100.454C340.048 100.454 394.094 64.1683 414.361 46.1504C405.604 56.1603 352.809 106.21 269.739 106.21C197.428 106.21 140.63 62.917 128.119 47.9021C156.893 72.4265 208.437 100.454 269.989 100.454Z" fill="#FFB356"/>
<path d="M270.49 129.232C340.55 129.232 400.35 97.2007 433.878 67.1709C409.858 92.1957 353.31 134.988 270.24 134.988C197.929 134.988 137.628 99.9534 108.854 69.1729C151.64 104.458 208.938 129.232 270.49 129.232Z" fill="#FFB356"/>
</svg>
