<svg width="397" height="141" viewBox="0 0 397 141" fill="none" xmlns="http://www.w3.org/2000/svg">
<path d="M198.418 65.0643C128.359 65.0643 77.8158 102.602 48.541 140.89C52.044 133.632 98.5834 59.3086 198.668 59.3086C270.979 59.3086 320.771 99.5986 347.544 140.89C308.511 92.3414 259.97 65.0643 198.418 65.0643Z" fill="#FFB356"/>
<path d="M198.417 34.284C118.35 34.284 54.7958 80.0795 23.7695 123.623C39.2827 96.0953 98.5828 28.5283 198.667 28.5283C286.242 28.5283 346.042 80.58 371.564 122.371C332.281 71.8213 274.231 34.284 198.417 34.284Z" fill="#FFB356"/>
<path d="M198.168 5.75571C99.334 5.75571 31.0262 63.8133 0 107.357C15.5131 79.8292 83.8209 0 198.418 0C302.506 0 370.564 65.565 396.085 107.357C356.802 56.8064 292.998 5.75571 198.168 5.75571Z" fill="#FFB356"/>
</svg>
